<?xml version="1.0" encoding="UTF-8"?>
<!DOCTYPE svg PUBLIC "-//W3C//DTD SVG 1.1//EN" "http://www.w3.org/Graphics/SVG/1.1/DTD/svg11.dtd">
<svg xmlns="http://www.w3.org/2000/svg" version="1.1" width="1419px" height="1427px" style="shape-rendering:geometricPrecision; text-rendering:geometricPrecision; image-rendering:optimizeQuality; fill-rule:evenodd; clip-rule:evenodd" xmlns:xlink="http://www.w3.org/1999/xlink">
<g><path style="opacity:1" fill="#070707" d="M 1017.5,631.5 C 1050.17,631.333 1082.84,631.5 1115.5,632C 1133.78,633.051 1144.61,642.551 1148,660.5C 1148.67,691.833 1148.67,723.167 1148,754.5C 1147.47,773.361 1137.97,784.528 1119.5,788C 1085.5,788.667 1051.5,788.667 1017.5,788C 1007.6,786.968 999.762,782.468 994,774.5C 990.791,768.204 988.791,761.538 988,754.5C 987.333,724.167 987.333,693.833 988,663.5C 990.448,645.89 1000.28,635.223 1017.5,631.5 Z M 1030,660 C 1080,660 1110,660 1110,660 C 1120,662 1125,670 1125,680 C 1125,700 1125,720 1125,740 C 1125,755 1118,762 1105,765 C 1070,765 1040,765 1025,765 C 1015,763 1010,755 1010,745 C 1010,720 1010,695 1010,680 C 1010,668 1018,662 1030,660 Z"/></g>
<g><path style="opacity:1" fill="#030303" d="M 1222.5,631.5 C 1249.5,631.333 1276.5,631.5 1303.5,632C 1319.5,634.328 1328.33,643.495 1330,659.5C 1330.81,666.082 1330.64,672.582 1329.5,679C 1323.83,679.667 1318.17,679.667 1312.5,679C 1311.69,672.581 1311.19,666.081 1311,659.5C 1308.26,653.094 1303.42,649.261 1296.5,648C 1274.5,647.333 1252.5,647.333 1230.5,648C 1224.3,648.844 1219.8,652.01 1217,657.5C 1215.9,663.254 1215.4,669.087 1215.5,675C 1215.4,680.913 1215.9,686.746 1217,692.5C 1219.01,697.838 1222.84,701.004 1228.5,702C 1256.17,702.333 1283.83,702.667 1311.5,703C 1326.25,704.748 1334.75,712.915 1337,727.5C 1337.9,740.881 1337.57,754.214 1336,767.5C 1332.71,780.073 1324.54,786.907 1311.5,788C 1280.5,788.667 1249.5,788.667 1218.5,788C 1208.49,786.597 1201.33,781.43 1197,772.5C 1193.46,761.847 1192.63,751.014 1194.5,740C 1200.42,739.193 1206.25,739.359 1212,740.5C 1212.33,747.167 1212.67,753.833 1213,760.5C 1214.91,766.74 1219.07,770.573 1225.5,772C 1251.83,772.667 1278.17,772.667 1304.5,772C 1312.28,771.201 1317.11,767.035 1319,759.5C 1319.67,750.167 1319.67,740.833 1319,731.5C 1316.85,723.667 1311.68,719.5 1303.5,719C 1276.83,718.667 1250.17,718.333 1223.5,718C 1206.19,715.347 1197.36,705.181 1197,687.5C 1196.17,676.128 1196.51,664.794 1198,653.5C 1201.64,641.024 1209.8,633.691 1222.5,631.5 Z"/></g>
<g><path style="opacity:1" fill="#0c0c0c" d="M 457.5,785.5 C 457.833,745.494 457.5,705.494 456.5,665.5C 455.893,665.624 455.56,665.957 455.5,666.5C 433.329,707.15 410.996,747.65 388.5,788C 384.167,788.667 379.833,788.667 375.5,788C 374.584,787.626 373.75,787.126 373,786.5C 351.254,746.007 329.254,705.673 307,665.5C 306.667,705.833 306.333,746.167 306,786.5C 305.5,787 305,787.5 304.5,788C 267.99,786.255 231.323,785.088 194.5,784.5C 189.167,783.833 183.833,783.167 178.5,782.5C 214.831,781.438 251.165,780.438 287.5,779.5C 287.5,777.5 287.5,775.5 287.5,773.5C 232.163,772.558 176.83,771.392 121.5,770C 176.829,768.5 232.163,767.333 287.5,766.5C 287.5,764.167 287.5,761.833 287.5,759.5C 252.83,759.465 218.163,759.132 183.5,758.5C 169.339,757.669 155.006,757.169 140.5,757C 147.013,756.828 153.347,756.328 159.5,755.5C 202.161,754.5 244.828,753.5 287.5,752.5C 287.5,750.5 287.5,748.5 287.5,746.5C 236.165,745.972 184.831,745.305 133.5,744.5C 130.167,743.833 126.833,743.167 123.5,742.5C 178.173,741.778 232.839,740.778 287.5,739.5C 287.5,737.833 287.5,736.167 287.5,734.5C 282.349,733.673 277.016,733.173 271.5,733C 250.169,732.5 228.836,732.333 207.5,732.5C 180.823,732.704 154.156,732.37 127.5,731.5C 108.833,730.833 90.1667,730.167 71.5,729.5C 143.492,727.982 215.492,726.982 287.5,726.5C 287.5,724.5 287.5,722.5 287.5,720.5C 217.83,719.625 148.163,718.625 78.5,717.5C 81.5,716.833 84.5,716.167 87.5,715.5C 154.164,714.633 220.831,713.967 287.5,713.5C 287.5,711.5 287.5,709.5 287.5,707.5C 224.674,705.757 161.674,704.59 98.5,704C 97.5842,703.722 96.9175,703.222 96.5,702.5C 160.162,701.343 223.829,700.343 287.5,699.5C 287.5,697.5 287.5,695.5 287.5,693.5C 234.164,693.055 180.83,692.389 127.5,691.5C 119.677,690.671 111.677,690.171 103.5,690C 115.341,689.831 127.007,689.331 138.5,688.5C 188.171,688.115 237.838,687.448 287.5,686.5C 287.5,684.5 287.5,682.5 287.5,680.5C 283.5,680.5 279.5,680.5 275.5,680.5C 250.338,679.425 225.005,678.758 199.5,678.5C 187.167,678.5 174.833,678.5 162.5,678.5C 153.014,677.506 143.348,677.173 133.5,677.5C 152.85,676.866 172.184,675.866 191.5,674.5C 223.499,674.064 255.499,673.731 287.5,673.5C 287.5,671.5 287.5,669.5 287.5,667.5C 255.175,666.453 222.842,665.786 190.5,665.5C 184.438,664.905 178.438,663.905 172.5,662.5C 210.821,661.217 249.155,660.55 287.5,660.5C 287.5,658.167 287.5,655.833 287.5,653.5C 247.491,653.333 207.491,652.666 167.5,651.5C 163.167,650.833 158.833,650.167 154.5,649.5C 198.815,648.22 243.149,647.22 287.5,646.5C 287.5,644.5 287.5,642.5 287.5,640.5C 245.821,639.826 204.155,638.659 162.5,637C 211.828,635.125 261.162,633.792 310.5,633C 334.206,676.913 358.04,720.747 382,764.5C 405.452,720.427 429.285,676.594 453.5,633C 460.826,632.5 468.159,632.334 475.5,632.5C 475.667,684.168 475.5,735.834 475,787.5C 469.584,788.639 464.084,788.806 458.5,788C 457.748,787.329 457.414,786.496 457.5,785.5 Z"/></g>
<g><path style="opacity:1" fill="#060606" d="M 575.5,632.5 C 582.175,632.334 588.842,632.5 595.5,633C 620.857,682.881 645.857,733.048 670.5,783.5C 691.515,758.482 712.182,733.148 732.5,707.5C 713.856,684.355 695.022,661.355 676,638.5C 674.872,636.655 674.372,634.655 674.5,632.5C 681.175,632.334 687.842,632.5 694.5,633C 710.63,653.629 727.297,673.795 744.5,693.5C 760.948,673.212 777.615,653.046 794.5,633C 801.158,632.5 807.825,632.334 814.5,632.5C 814.657,633.873 814.49,635.207 814,636.5C 794.311,660.021 774.811,683.688 755.5,707.5C 776.094,733.017 796.928,758.351 818,783.5C 818.72,785.112 818.554,786.612 817.5,788C 811.5,788.667 805.5,788.667 799.5,788C 780.949,766.288 762.616,744.455 744.5,722.5C 727.131,742.371 710.297,762.705 694,783.5C 692.457,785.378 690.624,786.878 688.5,788C 676.798,787.754 665.131,787.754 653.5,788C 649.473,780.905 645.64,773.739 642,766.5C 639.205,760.583 636.705,754.583 634.5,748.5C 602.16,748.167 569.826,748.5 537.5,749.5C 531.771,762.789 525.105,775.623 517.5,788C 511.916,788.806 506.416,788.639 501,787.5C 500.333,786.167 500.333,784.833 501,783.5C 525.847,733.14 550.68,682.807 575.5,632.5 Z M 585,680 L 555,735 L 615,735 Z"/></g>
<g><path style="opacity:1" fill="#040404" d="M 833.5,632.5 C 872.167,632.5 910.833,632.5 949.5,632.5C 949.805,637.762 949.471,642.928 948.5,648C 932.503,648.5 916.503,648.667 900.5,648.5C 900.5,689.5 900.5,730.5 900.5,771.5C 916.503,771.333 932.503,771.5 948.5,772C 949.637,777.082 949.804,782.249 949,787.5C 910.905,788.663 872.738,788.829 834.5,788C 833.527,782.593 833.193,777.093 833.5,771.5C 849.833,771.5 866.167,771.5 882.5,771.5C 882.5,730.5 882.5,689.5 882.5,648.5C 866.497,648.667 850.497,648.5 834.5,648C 833.529,642.928 833.195,637.762 833.5,632.5 Z"/></g>
</svg>
